<svg width="413" height="235" viewBox="0 0 413 235" fill="none" xmlns="http://www.w3.org/2000/svg">
<path fill-rule="evenodd" clip-rule="evenodd" d="M396.354 55.293C378.035 21.2333 342.397 0.0829906 303.725 0.320336H10.5371C6.66374 0.468919 3.21167 2.80637 1.63561 6.34765C0.0595356 9.88895 0.63355 14.0182 3.11576 16.9954L67.2505 81.1301C72.6827 86.7834 80.1198 90.0742 87.9569 90.2922H295.295C304.821 90.194 313.675 95.185 318.523 103.385C323.37 111.585 323.475 121.749 318.797 130.047C314.12 138.345 305.371 143.518 295.845 143.616H153.191C149.102 143.599 145.409 146.055 143.842 149.832C142.275 153.608 143.145 157.957 146.045 160.84L210.179 224.975C215.791 230.75 223.475 234.048 231.527 234.137H295.662C379.587 234.137 443.08 144.44 396.445 55.293H396.354Z" fill="white"/>
</svg>
