<svg width="601" height="803" viewBox="0 0 601 803" fill="none" xmlns="http://www.w3.org/2000/svg">
<path fill-rule="evenodd" clip-rule="evenodd" d="M149.504 143.647V70.1017C149.504 32.7582 184.777 0.485352 222.121 0.485352H380.076C417.419 0.485352 452.692 32.7582 452.692 70.1017V143.647H581.208C591.863 143.647 600.502 152.467 600.502 163.346V782.796C600.502 793.676 591.863 802.495 581.208 802.495H19.7947C9.13884 802.495 0.50058 793.676 0.50058 782.796V163.346C0.50058 152.467 9.13884 143.647 19.7947 143.647H149.504ZM406.044 143.647V75.1017C406.044 57.9986 392.179 44.1338 375.076 44.1338H227.121C210.018 44.1338 196.153 57.9986 196.153 75.1017V143.647H406.044Z" fill="white"/>
</svg>
